<svg width="100%" height="100%" viewBox="0 0 126 48" fill="none" xmlns="http://www.w3.org/2000/svg">
<path d="M0 4C0 1.79086 1.79086 0 4 0H121.684C123.893 0 125.684 1.79086 125.684 4V44C125.684 46.2091 123.893 48 121.684 48H4C1.79086 48 0 46.2091 0 44V4Z" fill="#C00719"></path>
<g clip-path="url(#clip0_10796_51973)">
<path fill-rule="evenodd" clip-rule="evenodd" d="M37.8975 29.3742C38.7109 28.7545 39.4905 28.1857 40.0156 27.8074L42.2521 22.2693H46.6433L45.7517 24.5712C47.2895 23.2913 49.3097 22.0194 51.3652 22.0194C52.9948 22.0194 54.1984 22.9727 53.6141 24.7184C55.1483 23.3906 57.2287 22.0323 59.3218 22.0323C60.7677 22.0323 62.0852 22.7582 61.6689 24.4263L59.3668 30.1146L59.2473 30.3921C58.5859 32.0328 58.7715 32.1118 58.7715 32.1118C58.9846 32.8394 60.7301 31.7021 60.7301 31.7021L60.7337 31.7002C61.0698 31.5165 61.627 31.1473 62.2494 30.7152V30.2451C62.3284 28.9222 62.7382 27.5075 63.5319 26.1975L63.5337 26.1993C64.9356 23.831 67.1716 22.3225 69.3011 22.058L69.3028 22.0617L69.3029 22.058C70.3208 21.9385 71.3276 22.0984 72.2004 22.5871C73.2435 23.1747 73.9594 24.1361 74.3281 25.3005C76.1102 25.5421 77.8723 24.599 77.8723 24.599C78.2148 24.385 78.4533 24.1839 78.637 23.9635L79.3292 22.2454H83.7204L82.7282 24.7184C84.2683 23.3913 86.3326 22.0323 88.4294 22.0323C89.8716 22.0323 91.2035 22.7612 90.7849 24.4263L88.4114 30.2553L88.3982 30.2872L88.385 30.3191C88.2859 30.5579 88.0015 31.2434 87.8874 31.6951C87.8313 31.9173 87.8094 32.2022 88.0586 32.3169C88.4394 32.4922 89.2843 32.0466 89.6598 31.8278C90.6068 31.2791 91.515 30.6696 92.3723 29.9879L92.38 30.0145C92.428 30.0891 92.4754 30.1636 92.5226 30.238C92.7832 30.6483 93.0406 31.0535 93.3923 31.4443C93.9902 32.1085 94.8125 32.6054 95.7197 32.6685C96.2371 32.7045 96.6863 32.5338 96.9246 32.0348C97.278 31.2951 96.7738 30.5711 96.1994 30.1165C95.1366 29.2863 93.9155 28.314 93.417 27.0153C92.9836 25.886 93.1728 24.6081 93.8623 23.6164C94.7427 22.3502 96.2131 21.9294 97.6898 21.9836C99.3238 22.0436 100.611 22.7712 101.675 23.9908L100.736 26.2654C100.521 25.8 100.15 25.3715 99.9311 25.1424C99.5512 24.744 99.1217 24.4026 98.579 24.2589C98.0087 24.108 97.2671 24.1352 96.849 24.614C96.4015 25.1264 96.535 25.8118 96.8919 26.3396C97.0639 26.594 97.2854 26.7865 97.5279 26.9688L97.587 27.0132C98.5102 27.7072 99.4778 28.4344 100.222 29.3139C101.015 30.2516 101.305 31.2637 101.105 32.4669C100.941 33.4557 100.464 34.3472 99.669 34.9627C98.7122 35.7036 97.284 35.9448 96.0947 35.8989C94.2323 35.8272 92.6941 34.8307 91.5296 33.4657L89.5814 34.7226C87.8746 35.8066 86.526 35.8728 86.526 35.8728C85.6371 35.9446 84.7801 35.892 83.9464 35.5678C83.2042 35.2673 82.8532 34.3951 82.9867 33.6353C83.1064 32.9535 83.6014 31.5713 83.8625 30.8681C84.2053 29.9447 84.5716 29.0307 84.9382 28.1163L84.979 28.0146C85.5614 26.508 84.7805 26.4675 84.7805 26.4675C83.6689 26.1368 81.0232 28.9149 81.0232 28.9149L78.3242 35.6082H73.9458L77.1846 27.5689C76.6341 27.8141 76.2316 27.9337 76.2316 27.9337C75.4799 28.2168 74.8963 28.417 74.4699 28.5545C74.2867 29.6468 73.9149 30.6928 73.3248 31.6763C72.3273 33.3743 70.8957 34.6152 69.3949 35.2867C68.048 35.8893 66.21 36.1549 64.6563 35.2867C63.8148 34.8127 63.1863 34.0954 62.7812 33.2246L60.4692 34.7024C58.777 35.7993 57.4137 35.8526 57.4137 35.8526C56.2764 35.9592 55.5231 35.8269 55.0197 35.6284C54.9002 35.588 54.847 35.5623 54.847 35.5623C53.7225 35.1122 53.8548 33.7636 53.8548 33.7636C53.9467 32.9184 54.9131 30.4307 54.9131 30.4307C55.0639 30.0476 55.209 29.6823 55.3409 29.3505L55.3416 29.3486C55.5692 28.7757 55.7574 28.302 55.8667 28.0091C56.462 26.4878 55.6682 26.462 55.6682 26.462C54.5567 26.1313 51.9238 28.8965 51.9238 28.8965L49.2119 35.6027H44.8464C44.8464 35.6027 47.347 29.4918 47.9148 27.9833C48.51 26.462 47.7163 26.4363 47.7163 26.4363C46.6047 26.1056 43.9719 28.8836 43.9719 28.8836L41.26 35.6046H36.8669L38.0949 32.5639C37.5622 33.1012 36.9635 33.6845 36.547 34.03C35.2428 35.1261 33.6345 35.9019 31.9354 35.916C30.106 35.9312 28.1941 35.1046 26.8515 33.8977C25.8336 32.9845 24.9591 31.2777 24.8672 29.3466C24.8672 28.109 25.0733 26.9303 25.648 25.8153C26.5976 24.0318 28.3314 22.9164 30.2529 22.415C29.7424 21.0887 29.4884 19.6882 29.8408 18.2878C30.1992 16.8831 30.8463 15.8168 31.6932 15.0341C33.1368 13.6996 35.1234 13.2399 37.0411 13.2335C38.2919 13.2293 39.5273 13.455 40.615 14.1027C41.2865 14.5026 41.8717 15.0212 42.4485 15.6163C42.4356 15.6421 41.4821 18.0104 41.4821 18.0104C40.6094 16.5423 39.3912 15.8019 38.2153 15.7082C36.3723 15.5683 34.7321 16.4012 34.074 18.2731C33.69 19.3975 33.7176 20.217 33.8627 21.1173C35.0016 20.8901 36.017 20.8798 37.1316 21.1396C38.0562 21.3551 39.1745 21.748 39.6871 22.6036C39.9874 23.1047 40.0159 23.7407 39.8514 24.294C39.5445 25.3258 38.4915 25.9746 37.4982 26.2173C36.0928 26.5606 34.315 26.366 33.0113 25.6957C32.6819 25.5264 32.3279 25.2986 31.9942 24.994C30.2487 25.182 29.2569 27.3699 29.4297 28.934C29.6069 30.5381 30.5939 31.7464 32.1841 32.1822C33.1684 32.452 34.1547 32.3264 34.9627 31.6694C35.943 30.8723 36.878 30.1342 37.8956 29.3742H37.8975ZM69.3251 25.1535C70.1941 24.5944 71.0477 24.5156 71.6261 25.0311C71.1763 25.1309 70.4989 25.4303 70.1078 26.3187H70.1096C70.1096 26.3187 69.6062 27.6416 70.4661 28.5804C70.4661 28.5804 70.8501 29.0306 71.6291 29.1096C71.6291 29.1096 71.6982 29.1249 71.8259 29.1342C71.6315 29.6438 71.3762 30.1553 71.0631 30.6438C70.5339 31.4632 69.9111 32.0989 69.3029 32.4958H69.2992C68.3879 33.0911 67.4876 33.1572 66.8924 32.5619C65.9278 31.5551 66.2052 29.082 67.5281 27.0316C67.8855 26.4827 68.792 25.4966 69.3251 25.1535Z" fill="#030000"></path>
<path fill-rule="evenodd" clip-rule="evenodd" d="M39.5489 26.6649C39.0237 27.0431 38.2441 27.6119 37.4307 28.2316H37.4288C36.4112 28.9917 35.4762 29.7297 34.4959 30.5268C33.6879 31.1838 32.7016 31.3094 31.7173 31.0396C30.1272 30.6039 29.1401 29.3955 28.9629 27.7914C28.7901 26.2273 29.7819 24.0394 31.5274 23.8514C31.8611 24.156 32.2151 24.3838 32.5445 24.5532C33.8482 25.2234 35.626 25.418 37.0314 25.0747C38.0247 24.832 39.0777 24.1832 39.3846 23.1514C39.5491 22.5981 39.5206 21.9621 39.2203 21.461C38.7077 20.6055 37.5894 20.2125 36.6648 19.997C35.5502 19.7373 34.5348 19.7475 33.3959 19.9747C33.2508 19.0744 33.2232 18.255 33.6072 17.1305C34.2653 15.2586 35.9055 14.4257 37.7485 14.5656C38.9244 14.6593 40.1426 15.3998 41.0153 16.8678C41.0153 16.8678 41.9689 14.4995 41.9817 14.4738C41.4049 13.8786 40.8197 13.36 40.1482 12.9601C39.0605 12.3124 37.8251 12.0867 36.5743 12.0909C34.6566 12.0973 32.6701 12.557 31.2264 13.8915C30.3795 14.6743 29.7324 15.7405 29.374 17.1452C29.0216 18.5456 29.2756 19.9461 29.7861 21.2724C27.8646 21.7739 26.1308 22.8892 25.1813 24.6727C24.6065 25.7878 24.4004 26.9664 24.4004 28.2041C24.4923 30.1351 25.3668 31.842 26.3847 32.7551C27.7273 33.962 29.6392 34.7886 31.4686 34.7734C33.1677 34.7593 34.776 33.9835 36.0802 32.8874C36.4967 32.5419 37.0954 31.9586 37.6281 31.4213L36.4001 34.462H40.7932L43.5051 27.7411C43.5051 27.7411 46.1379 24.963 47.2495 25.2937C47.2495 25.2937 48.0432 25.3195 47.448 26.8408C46.8802 28.3492 44.3796 34.4601 44.3796 34.4601H48.7451L51.457 27.7539C51.457 27.7539 54.0899 24.9888 55.2014 25.3195C55.2014 25.3195 55.9952 25.3452 55.3999 26.8665C55.2906 27.1595 55.1024 27.6331 54.8748 28.206L54.8741 28.2079C54.7422 28.5398 54.5971 28.905 54.4463 29.2881C54.4463 29.2881 53.4799 31.7758 53.388 32.621C53.388 32.621 53.2557 33.9696 54.3802 34.4197C54.3802 34.4197 54.4334 34.4454 54.5529 34.4859C55.0563 34.6843 55.8096 34.8166 56.9469 34.71C56.9469 34.71 58.3102 34.6567 60.0024 33.5599L62.3144 32.0821C62.7195 32.9529 63.348 33.6701 64.1895 34.1441C65.7432 35.0123 67.5812 34.7468 68.9281 34.1441C70.4289 33.4726 71.8605 32.2317 72.858 30.5338C73.4481 29.5502 73.8199 28.5042 74.0031 27.4119C74.4295 27.2744 75.0131 27.0742 75.7648 26.7911C75.7648 26.7911 76.1673 26.6715 76.7178 26.4263L73.479 34.4656H77.8574L80.5564 27.7723C80.5564 27.7723 83.2021 24.9943 84.3137 25.325C84.3137 25.325 85.0946 25.3654 84.5122 26.872L84.4714 26.9737C84.1048 27.8881 83.7385 28.8021 83.3957 29.7255C83.1346 30.4288 82.6396 31.8109 82.5199 32.4927C82.3864 33.2525 82.7374 34.1247 83.4796 34.4252C84.3134 34.7494 85.1703 34.802 86.0592 34.7302C86.0592 34.7302 87.4078 34.6641 89.1146 33.5801L91.0628 32.3231C92.2273 33.6881 93.7655 34.6846 95.6279 34.7564C96.8172 34.8022 98.2454 34.561 99.2022 33.8201C99.9972 33.2046 100.474 32.3131 100.638 31.3243C100.838 30.1211 100.548 29.1091 99.7548 28.1713C99.011 27.2918 98.0435 26.5646 97.1202 25.8707L97.0611 25.8262C96.8186 25.6439 96.5971 25.4514 96.4251 25.1971C96.0682 24.6692 95.9347 23.9839 96.3822 23.4714C96.8003 22.9926 97.5419 22.9654 98.1122 23.1164C98.6549 23.26 99.0844 23.6014 99.4643 23.9998C99.6828 24.229 100.054 24.6575 100.269 25.1229L101.208 22.8483C100.144 21.6286 98.857 20.901 97.223 20.8411C95.7463 20.7869 94.2759 21.2076 93.3955 22.4738C92.706 23.4655 92.5168 24.7434 92.9502 25.8727C93.4487 27.1715 94.6698 28.1437 95.7326 28.9739C96.307 29.4285 96.8112 30.1525 96.4578 30.8923C96.2195 31.3912 95.7703 31.5619 95.2529 31.5259C94.3457 31.4628 93.5234 30.966 92.9255 30.3017C92.5738 29.911 92.3165 29.5058 92.0558 29.0954L92.0552 29.0944C92.0082 29.0204 91.961 28.9462 91.9132 28.8719L91.9055 28.8453C91.0482 29.527 90.14 30.1365 89.193 30.6852C88.8175 30.904 87.9726 31.3496 87.5918 31.1743C87.3426 31.0596 87.3645 30.7747 87.4206 30.5525C87.5347 30.1008 87.8191 29.4154 87.9182 29.1766L87.9314 29.1447L87.9446 29.1127L90.3181 23.2837C90.7367 21.6187 89.4048 20.8897 87.9626 20.8897C85.8658 20.8897 83.8015 22.2487 82.2614 23.5758L83.2536 21.1028H78.8624L78.1702 22.8209C77.9865 23.0414 77.748 23.2424 77.4055 23.4564C77.4055 23.4564 75.6434 24.3995 73.8613 24.1579C73.4926 22.9935 72.7767 22.0321 71.7336 21.4445C71.0829 21.0802 70.3577 20.8986 69.609 20.8793C68.9732 20.8629 68.3037 20.9747 67.7003 21.1702C65.9404 21.7401 64.221 23.107 63.0669 25.0567L63.0651 25.0549C62.2714 26.3649 61.8617 27.7796 61.7826 29.1025V29.5726C61.1602 30.0048 60.603 30.374 60.2669 30.5577L60.2633 30.5595C60.2633 30.5595 58.5178 31.6968 58.3047 30.9692C58.3047 30.9692 58.1191 30.8902 58.7805 29.2495L58.9 28.9721L61.2021 23.2837C61.6184 21.6156 60.3009 20.8897 58.855 20.8897C56.7619 20.8897 54.6815 22.248 53.1473 23.5759C53.7316 21.8302 52.528 20.8768 50.8984 20.8768C48.8429 20.8768 46.8227 22.1487 45.2849 23.4286L46.1765 21.1267H41.7853L39.5489 26.6649ZM71.1593 23.8886C70.5809 23.373 69.7273 23.4518 68.8583 24.0109C68.3252 24.354 67.4187 25.3402 67.0613 25.889C65.7384 27.9395 65.461 30.4125 66.4256 31.4194C67.0208 32.0146 67.9211 31.9485 68.8324 31.3532H68.8361C69.4443 30.9563 70.0671 30.3206 70.5963 29.5012C70.9094 29.0127 71.1647 28.5012 71.3591 27.9916C71.2314 27.9823 71.1623 27.967 71.1623 27.967C70.3833 27.888 69.9993 27.4379 69.9993 27.4379C69.1394 26.499 69.6428 25.1761 69.6428 25.1761H69.641C70.0321 24.2877 70.7095 23.9883 71.1593 23.8886ZM35.5787 21.8543C35.084 21.8182 34.5894 21.9213 34.1493 22.1464C34.4103 22.6117 35.0147 22.9275 35.5252 22.981C35.8008 23.0099 36.9495 23.0079 36.9953 22.5561C37.0015 22.4416 36.9011 22.3304 36.795 22.2457C36.4599 21.9783 35.9972 21.8753 35.5787 21.8543Z" fill="#FFFBDF"></path>
</g>
<defs>
<clipPath id="clip0_10796_51973">
<rect width="100%" height="100%" fill="white" transform="translate(24.1426 12)"></rect>
</clipPath>
</defs>
</svg>